<?xml version="1.0" encoding="UTF-8"?>
<svg xmlns="http://www.w3.org/2000/svg" viewBox="0 0 252 80" role="img" aria-labelledby="title">
  <title id="title">관리체계</title>
  <defs>
    <style>
      .mark,.word{fill:#fff}
      .word{font-family:"Google Sans","Google Sans Text","Noto Sans KR",Arial,sans-serif;font-size:30px;font-weight:800;letter-spacing:-.02em}
    </style>
  </defs>
  <path class="mark" d="M85.1 36.2h0L65.2 14.5c-1-.9-1.6-1.2-3-1.2H27.6c-1.4 0-2 .3-3 1.2L1.8 39.2c-.4.4-.6.9-.6 1.3 0 .5.3.9.8 1.2l3.8 2.3c1 .7 2.1.2 2.9-.7l20.8-21.7c1-.9 1.6-1.2 3-1.2h24.8c1.4 0 2 .3 3 1.2l8.4 9c.1.2.2.4.2.6 0 .5-.4 1-1 1H27.9c-1.4 0-2 .3-3 1.2L13.5 45.5c-.4.4-.6.8-.6 1.3 0 .4.3.8.8 1.1l30.7 18.3c.5.4 1.1.6 1.8.6s1.3-.2 1.9-.6l33.7-19.9c.5-.3.9-.8.9-1.4 0-.9-.7-1.6-1.6-1.6H53.6c-1.4 0-2 .3-3 1.2l-2.7 3.3c-.1.2-.2.4-.2.7 0 .7.6 1.2 1.2 1.2H57c1 0 1.6.3 1.8.8.2.6-.2 1.1-1.1 1.7l-9.6 5.7c-.5.4-1.2.7-1.9.7s-1.2-.2-1.7-.5L25.8 46.9c-.6-.3-1-.9-1-1.6s.2-1 .6-1.3l3.1-3.4c1-.9 1.8-1.2 3.1-1.2h53.4c1 0 1.9-.8 1.9-1.9s-.2-.9-.4-1.2z"/>
  <text class="word" x="104" y="50">관리체계</text>
</svg>
