<?xml version="1.0" encoding="UTF-8"?>
<svg id="_圖層_1" data-name="圖層_1" xmlns="http://www.w3.org/2000/svg" viewBox="0 0 686.07 705.89">
  <defs>
    <style>
      .cls-1 {
        fill: #6040ef;
      }

      .cls-2 {
        fill: #fff;
      }
    </style>
  </defs>
  <circle class="cls-2" cx="343.69" cy="350.37" r="335.53"/>
  <path class="cls-1" d="M631.22,331.98l.04-.07-137.01-149.74c-6.87-6.46-11-8.4-20.42-8.4h-238.63c-9.42,0-13.55,1.94-20.42,8.4L57.35,352.59c-2.97,2.81-4.35,6.04-4.08,9.27.27,3.23,2.17,6.15,5.35,8.28l25.99,15.81c7.09,4.72,14.18,1.04,20.32-4.93l143.62-149.71c6.91-6.5,11.06-8.45,20.54-8.45h170.82c9.47,0,13.62,1.95,20.54,8.45,0,0,57.89,61.75,57.98,61.84l.37.39v.03c.89,1.15,1.43,2.59,1.43,4.15,0,3.67-2.96,6.67-6.61,6.75h0s-.13,0-.13,0c0,0-.01,0-.02,0h0s-.02,0-.03,0l-261.71-.2-.02.06h-24.73c-9.42,0-13.55,1.94-20.42,8.4l-78.52,83.67c-2.77,2.57-4.11,5.66-3.8,8.68.32,3.02,2.28,5.73,5.52,7.66l211.56,126c3.49,2.44,7.73,3.89,12.31,3.89,4.85,0,9.31-1.62,12.9-4.33h.28s232.82-137.54,232.82-137.54c3.5-1.83,5.89-5.49,5.89-9.72,0-6.02-4.85-10.9-10.85-10.96v-.05h-181.61s-8.6,0-8.6,0c-9.42,0-13.55,1.94-20.42,8.4l-18.9,23.05c-.86,1.33-1.13,2.85-1.13,4.55,0,4.68,3.8,8.48,8.48,8.48l55.64.07c7.16,0,11.33,1.96,12.43,5.78,1.08,3.84-1.45,7.69-7.54,11.46l-65.88,39.19h-.25c-3.65,2.88-8.25,4.6-13.25,4.6-4.23,0-8.17-1.24-11.49-3.35h-.14s-129.16-77.22-129.16-77.22l-.04-.21c-4.02-1.98-6.79-6.11-6.79-10.89,0-3.67,1.64-6.95,4.21-9.18l21.05-23.12c6.91-6.5,12.1-8.43,21.57-8.43l366.7.03s1.1-.09,1.6-.09c7.14,0,12.99-5.85,12.99-12.99,0-3.09-1.1-5.94-2.92-8.18Z"/>
</svg>