<?xml version="1.0" encoding="UTF-8"?>
<svg id="_圖層_1" data-name="圖層_1" xmlns="http://www.w3.org/2000/svg" version="1.1" viewBox="0 0 256 256">
  <!-- Generator: Adobe Illustrator 30.0.0, SVG Export Plug-In . SVG Version: 2.1.1 Build 123)  -->
  <defs>
    <style>
      .st0 {
        fill: #fff;
      }
    </style>
  </defs>
  <path class="st0" d="M101.1,127.2h0s-19.9-21.7-19.9-21.7c-1-.9-1.6-1.2-3-1.2h-34.6c-1.4,0-2,.3-3,1.2l-22.8,24.7c-.4.4-.6.9-.6,1.3,0,.5.3.9.8,1.2l3.8,2.3c1,.7,2.1.2,2.9-.7l20.8-21.7c1-.9,1.6-1.2,3-1.2h24.8c1.4,0,2,.3,3,1.2,0,0,8.4,9,8.4,9h0c0,0,0,0,0,0,.1.2.2.4.2.6,0,.5-.4,1-1,1h0s0,0,0,0c0,0,0,0,0,0h0s0,0,0,0h-37.9s0,0,0,0h-3.6c-1.4,0-2,.3-3,1.2l-11.4,12.1c-.4.4-.6.8-.6,1.3,0,.4.3.8.8,1.1l30.7,18.3c.5.4,1.1.6,1.8.6s1.3-.2,1.9-.6h0s33.7-19.9,33.7-19.9c.5-.3.9-.8.9-1.4,0-.9-.7-1.6-1.6-1.6h0s-26.3,0-26.3,0h0s-1.2,0-1.2,0c-1.4,0-2,.3-3,1.2l-2.7,3.3c-.1.2-.2.4-.2.7,0,.7.6,1.2,1.2,1.2h8.1c1,0,1.6.3,1.8.8.2.6-.2,1.1-1.1,1.7l-9.6,5.7h0c-.5.4-1.2.7-1.9.7s-1.2-.2-1.7-.5h0s-18.7-11.2-18.7-11.2h0c-.6-.3-1-.9-1-1.6s.2-1,.6-1.3l3.1-3.4c1-.9,1.8-1.2,3.1-1.2h53.2s.2,0,.2,0c1,0,1.9-.8,1.9-1.9s-.2-.9-.4-1.2Z"/>
  <g>
    <path class="st0" d="M120.7,120.2h-6.1v7.4h-3.4v-17.8h9.5c2.8,0,4.8,1.7,4.8,4.1v2.1c0,2.4-2,4.2-4.8,4.2ZM122.2,113.8c0-.6-.6-1.1-1.2-1.1h-6.4v4.7h6.4c.6,0,1.2-.5,1.2-1.1v-2.5Z"/>
    <path class="st0" d="M128.1,127.7v-17.8h12.8v2.8h-9.4v4.6h7.3v2.9h-7.3v4.6h9.4v2.8h-12.8Z"/>
    <path class="st0" d="M155.2,127.7v-5.4l-7.9-7.4v12.8h-3.5v-17.8h2.9l8.4,8v-8h3.5v17.8h-3.5Z"/>
    <path class="st0" d="M170.1,112.7v14.9h-3.6v-14.9h-6v-2.8h15.6v2.8h-6Z"/>
    <path class="st0" d="M192,127.7h-3.4v-5.6h-8.1v5.6h-3.4v-10.8c0-1.3.2-2.1,1.3-2.9l4.7-4h3l4.7,4c1.1.9,1.3,1.7,1.3,2.9v10.8ZM188.5,117c0-.6,0-.8-.4-1.2l-3.6-3.2c-.2.2-3.6,3.2-3.6,3.2-.4.4-.4.5-.4,1.2v2.4h8.1v-2.4Z"/>
    <path class="st0" d="M205,127.7h-5.3c-2.8,0-4.8-1.7-4.8-4.1v-9.5c0-2.4,2-4.1,4.8-4.1h5.3c2.8,0,4.8,1.7,4.8,4.1v1.3h-3.5v-1.5c0-.6-.6-1.1-1.2-1.1h-5.6c-.6,0-1.2.5-1.2,1.1v9.8c0,.6.6,1.1,1.2,1.1h5.6c.6,0,1.2-.5,1.2-1.1v-3.5h-4v-2.8h7.5v6.2c0,2.4-2,4.1-4.8,4.1Z"/>
    <path class="st0" d="M223.5,127.7h-5.9c-2.8,0-4.8-1.7-4.8-4.1v-9.5c0-2.4,2-4.1,4.8-4.1h5.9c2.8,0,4.8,1.7,4.8,4.1v9.5c0,2.4-2,4.1-4.8,4.1ZM224.9,113.9c0-.6-.6-1.1-1.2-1.1h-6.4c-.6,0-1.2.5-1.2,1.1v9.8c0,.6.6,1.1,1.2,1.1h6.4c.6,0,1.2-.5,1.2-1.1v-9.8Z"/>
    <path class="st0" d="M242.6,127.7v-5.4l-7.9-7.4v12.8h-3.5v-17.8h2.9l8.4,8v-8h3.5v17.8h-3.5Z"/>
    <g>
      <path class="st0" d="M121.4,152h-5.3c-2.8,0-4.8-1.8-4.8-4.1v-9.5c0-2.4,2-4.2,4.8-4.2h5.3c2.8,0,4.8,1.8,4.8,4.2v1.3h-3.5v-1.5c0-.6-.6-1.1-1.2-1.1h-5.7c-.6,0-1.2.5-1.2,1.1v9.9c0,.6.6,1.1,1.2,1.1h5.7c.6,0,1.2-.5,1.2-1.1v-3.5h-4.1v-2.9h7.5v6.2c0,2.4-2,4.1-4.8,4.1Z"/>
      <path class="st0" d="M140.5,152v-6c0-1.1-.3-1.5-1.4-1.5h-6.6v7.4h-3.4v-17.8h10c2.8,0,4.9,1.8,4.9,4.2v1.9c0,1.5-.8,2.3-1.3,2.8.6.4,1.3,1.2,1.3,2.6v6.4h-3.5ZM140.5,138.1c0-.6-.6-1.2-1.2-1.2h-6.8v4.7h6.4c1.3,0,1.6-.3,1.6-1.4v-2.1Z"/>
      <path class="st0" d="M157.7,152h-5.9c-2.8,0-4.8-1.8-4.8-4.1v-9.5c0-2.4,2-4.2,4.8-4.2h5.9c2.8,0,4.8,1.8,4.8,4.2v9.5c0,2.4-2,4.1-4.8,4.1ZM159.1,138.2c0-.6-.6-1.1-1.2-1.1h-6.4c-.6,0-1.2.5-1.2,1.1v9.8c0,.6.6,1.1,1.2,1.1h6.4c.6,0,1.2-.5,1.2-1.1v-9.8Z"/>
      <path class="st0" d="M175.5,152h-5.3c-2.8,0-4.8-1.8-4.8-4.1v-13.7h3.6v13.8c0,.6.6,1.1,1.2,1.1h5.5c.6,0,1.2-.5,1.2-1.1v-13.8h3.6v13.7c0,2.4-2,4.1-4.8,4.1Z"/>
      <path class="st0" d="M192.8,144.6h-6.1v7.4h-3.4v-17.8h9.6c2.8,0,4.8,1.8,4.8,4.2v2.1c0,2.4-2,4.2-4.8,4.2ZM194.3,138.1c0-.6-.6-1.1-1.2-1.1h-6.4v4.7h6.4c.6,0,1.2-.5,1.2-1.1v-2.5Z"/>
    </g>
  </g>
</svg>