<?xml version="1.0" encoding="UTF-8"?>
<svg id="_圖層_1" data-name="圖層_1" xmlns="http://www.w3.org/2000/svg" viewBox="0 0 841.89 595.28">
  <defs>
    <style>
      .cls-1 {
        fill: #6040ef;
      }

      .cls-2 {
        fill: #fff;
      }
    </style>
  </defs>
  <rect class="cls-1" x="-26.02" y="-7.68" width="872.89" height="610.67"/>
  <path class="cls-2" d="M334.99,186.98c-17.99,0-32.71,14.72-32.71,32.71v155.61c0,17.99,14.72,32.71,32.71,32.71h155.61c17.99,0,32.71-14.72,32.71-32.71v-155.61c0-17.99-14.72-32.71-32.71-32.71h-155.61ZM505.27,300.18h-.17c-.2.02-15.08.03-33.07.03h-56.79c-17.99,0-33.81.14-35.15.32s-6.33,4.22-8.25,6.34-4.14,4.68-4.91,5.69v2.82c1.24,1.12,2.27,2.05,2.27,2.07s9.69,5.83,21.53,12.9c11.84,7.08,21.53,12.87,21.54,12.87s1.11.5,2.44,1.12h3.08c1.51-.84,2.77-1.53,2.79-1.53s4.98-2.94,11.02-6.53,12.27-7.67,13.85-9.07l-.36-1.28-.37-1.27c-2.08-.36-7.95-.66-13.05-.66s-10.54-.58-12.1-1.28v-2.13c.21-.52,1.79-2.68,3.53-4.79s3.97-4.47,4.98-5.24,5.62-1.4,6.41-1.4,1.43,0,1.43,0,13.62,0,30.26,0,30.26,0,30.26,0,1.63.75,3.62,1.66v3.41c-1.08,1.01-14.64,9.32-30.13,18.47l-21.26,12.56c-15.49,9.15-28.18,16.64-28.21,16.64s-1.26.65-2.73,1.44h-3.14c-1.42-.71-15.22-8.83-30.68-18.03l-14.3-8.52c-15.46-9.21-28.88-17.43-29.84-18.29l-.11-1.01-.11-1.01c.75-1.04,7.26-8.16,14.46-15.83,7.2-7.67,13.91-14.57,14.92-15.34s6.83-1.4,9.09-1.4,4.12,0,4.12,0,14.72,0,32.71.02l21.8.02c17.99.01,32.71.03,32.71.03s0,0,0,0,0,0,0,0,.01,0,.03,0,.02,0,.02,0,.99-.46,2.2-1.03v-1.74c-.26-.47-.48-.86-.48-.87s-.03-.03-.06-.07-4.41-4.7-9.72-10.37-10.49-10.94-11.5-11.71-17.81-1.41-33.47-1.41-29.49.15-30.73.33-14.76,13.11-27.22,26.1l-2.58,2.68c-12.45,12.98-23.64,24.33-24.85,25.21s-6.52-1.15-8.9-2.6-5.09-3.39-6.02-4.32l-.09-1.08-.09-1.08c.8-1.11,11.44-12.82,23.65-26.04l8.07-8.74c12.21-13.21,23.02-24.66,24.03-25.43s19.69-1.4,37.68-1.4h14.11c17.99,0,33.73.15,34.97.32s14.48,13.34,26.63,26.61l1.5,1.64c12.14,13.27,22.08,24.14,22.07,24.14s.43.77.97,1.71v1.03c0,2.38-1.95,4.33-4.33,4.33Z"/>
</svg>