<?xml version="1.0" encoding="UTF-8"?>
<svg id="_圖層_1" data-name="圖層_1" xmlns="http://www.w3.org/2000/svg" viewBox="0 0 841.89 595.28">
  <defs>
    <style>
      .cls-1 {
        fill: #6040ef;
      }

      .cls-2 {
        fill: #fff;
      }
    </style>
  </defs>
  <rect class="cls-1" x="302.28" y="186.98" width="221.03" height="221.03" rx="32.71" ry="32.71"/>
  <path class="cls-2" d="M508.62,293.12v-.02s-45.65-49.9-45.65-49.9c-2.29-2.15-3.67-2.8-6.8-2.8h-79.53c-3.14,0-4.51.65-6.8,2.8l-52.47,56.79c-.99.94-1.45,2.01-1.36,3.09.09,1.08.72,2.05,1.78,2.76l8.66,5.27c2.36,1.57,4.73.35,6.77-1.64l47.86-49.89c2.3-2.17,3.69-2.82,6.84-2.82h56.93c3.16,0,4.54.65,6.84,2.82,0,0,19.29,20.58,19.32,20.61l.12.13h0c.3.39.48.87.48,1.39,0,1.22-.99,2.22-2.2,2.25h0s-.04,0-.04,0c0,0,0,0,0,0h0s0,0-.01,0l-87.22-.07v.02h-8.25c-3.14,0-4.51.65-6.8,2.8l-26.17,27.88c-.92.86-1.37,1.89-1.27,2.89.11,1.01.76,1.91,1.84,2.55l70.51,41.99c1.16.81,2.58,1.29,4.1,1.29,1.62,0,3.1-.54,4.3-1.44h.09s77.59-45.84,77.59-45.84c1.17-.61,1.96-1.83,1.96-3.24,0-2-1.61-3.63-3.61-3.65v-.02h-60.53s-2.87,0-2.87,0c-3.14,0-4.51.65-6.8,2.8l-6.3,7.68c-.29.44-.38.95-.38,1.52,0,1.56,1.27,2.83,2.83,2.83l18.54.02c2.38,0,3.78.65,4.14,1.93.36,1.28-.48,2.56-2.51,3.82l-21.96,13.06h-.08c-1.22.96-2.75,1.53-4.42,1.53-1.41,0-2.72-.41-3.83-1.12h-.05s-43.04-25.73-43.04-25.73v-.07c-1.35-.66-2.28-2.03-2.28-3.63,0-1.22.54-2.32,1.4-3.06l7.02-7.71c2.3-2.17,4.03-2.81,7.19-2.81h122.21s.37-.02.53-.02c2.38,0,4.33-1.95,4.33-4.33,0-1.03-.37-1.98-.97-2.72Z"/>
</svg>